<?xml version="1.0" encoding="UTF-8"?>
<svg width="175px" height="175px" viewBox="0 0 175 175" version="1.1" xmlns="http://www.w3.org/2000/svg" xmlns:xlink="http://www.w3.org/1999/xlink">
    <!-- Generator: Sketch 54.1 (76490) - https://sketchapp.com -->
    <title>plus-circle-fill</title>
    <desc>Created with Sketch.</desc>
    <g id="页面1" stroke="none" stroke-width="1" fill="none" fill-rule="evenodd">
        <g id="plus-circle-fill" fill="#000000" fill-rule="nonzero">
            <path d="M87.5,0 C39.1796875,0 0,39.1796875 0,87.5 C0,135.820312 39.1796875,175 87.5,175 C135.820312,175 175,135.820312 175,87.5 C175,39.1796875 135.820312,0 87.5,0 Z M125,92.1875 C125,93.046875 124.296875,93.75 123.4375,93.75 L93.75,93.75 L93.75,123.4375 C93.75,124.296875 93.046875,125 92.1875,125 L82.8125,125 C81.953125,125 81.25,124.296875 81.25,123.4375 L81.25,93.75 L51.5625,93.75 C50.703125,93.75 50,93.046875 50,92.1875 L50,82.8125 C50,81.953125 50.703125,81.25 51.5625,81.25 L81.25,81.25 L81.25,51.5625 C81.25,50.703125 81.953125,50 82.8125,50 L92.1875,50 C93.046875,50 93.75,50.703125 93.75,51.5625 L93.75,81.25 L123.4375,81.25 C124.296875,81.25 125,81.953125 125,82.8125 L125,92.1875 Z" id="形状"></path>
        </g>
    </g>
</svg>