<?xml version="1.0" encoding="UTF-8"?>
<svg width="61px" height="61px" viewBox="0 0 61 61" version="1.1" xmlns="http://www.w3.org/2000/svg" xmlns:xlink="http://www.w3.org/1999/xlink">
    <!-- Generator: Sketch 54.1 (76490) - https://sketchapp.com -->
    <title>plus-circle-fill复制</title>
    <desc>Created with Sketch.</desc>
    <g id="页面1" stroke="none" stroke-width="1" fill="none" fill-rule="evenodd">
        <g id="plus-circle-fill复制" transform="translate(30.743687, 30.500000) rotate(-315.000000) translate(-30.743687, -30.500000) translate(-6.756313, -7.000000)" fill="#000000" fill-rule="nonzero">
            <path d="M75,42.1875 C75,43.046875 74.296875,43.75 73.4375,43.75 L43.75,43.75 L43.75,73.4375 C43.75,74.296875 43.046875,75 42.1875,75 L32.8125,75 C31.953125,75 31.25,74.296875 31.25,73.4375 L31.25,43.75 L1.5625,43.75 C0.703125,43.75 2.27373675e-13,43.046875 2.27373675e-13,42.1875 L2.27373675e-13,32.8125 C2.27373675e-13,31.953125 0.703125,31.25 1.5625,31.25 L31.25,31.25 L31.25,1.5625 C31.25,0.703125 31.953125,1.13686838e-13 32.8125,1.13686838e-13 L42.1875,1.13686838e-13 C43.046875,1.13686838e-13 43.75,0.703125 43.75,1.5625 L43.75,31.25 L73.4375,31.25 C74.296875,31.25 75,31.953125 75,32.8125 L75,42.1875 Z" id="形状"></path>
        </g>
    </g>
</svg>