<?xml version="1.0" encoding="UTF-8"?>
<svg width="121px" height="120px" viewBox="0 0 121 120" version="1.1" xmlns="http://www.w3.org/2000/svg" xmlns:xlink="http://www.w3.org/1999/xlink">
    <!-- Generator: Sketch 54.1 (76490) - https://sketchapp.com -->
    <title>totop</title>
    <desc>Created with Sketch.</desc>
    <g id="页面1" stroke="none" stroke-width="1" fill="none" fill-rule="evenodd">
        <g id="totop" fill="#FD6225" fill-rule="nonzero">
            <path d="M60.5,0 C93.6339286,0 120.5,26.8660714 120.5,60 C120.5,93.1339286 93.6339286,120 60.5,120 C27.3660714,120 0.5,93.1339286 0.5,60 C0.5,26.8660714 27.3660714,0 60.5,0 Z M54.1613406,54.311004 L54.1613406,90.6266622 C54.1613406,91.3580452 54.7555307,91.9564495 55.4817631,91.9564495 L65.3849321,91.9564495 C66.1111645,91.9564495 66.7053547,91.3580452 66.7053547,90.6266622 L66.7053547,54.311004 L78.9357684,54.311004 C80.0416223,54.311004 80.6523177,53.0310838 79.9756012,52.1667221 L61.4896857,28.5962434 C60.9615166,27.9147274 59.9381892,27.9147274 59.4100202,28.5962434 L40.9241047,52.1500997 C40.2473881,53.0310838 40.8580835,54.311004 41.9639374,54.311004 L54.1613406,54.311004 Z" id="形状"></path>
        </g>
    </g>
</svg>